<svg width="32" height="32" viewBox="0 0 32 32" fill="none" xmlns="http://www.w3.org/2000/svg">
<g clip-path="url(#clip0_5_2)">
<rect width="32" height="32" rx="16" fill="#0EA5E9"/>
<path d="M10.484 16.236C10.456 16.152 10.456 16.068 10.484 15.984L14.656 9.04C14.74 8.9 14.628 8.676 14.46 8.676H9.644C9.56 8.676 9.476 8.732 9.42 8.816L7.04 13.268C6.928 13.464 6.62 13.38 6.62 13.156V4.252C6.62 4.112 6.508 4 6.368 4H2.224C2.084 4 2 4.112 2 4.252V23.292C2 23.432 2.084 23.516 2.224 23.516H6.368C6.508 23.516 6.62 23.432 6.62 23.292V19.064C6.62 18.84 6.928 18.756 7.04 18.952L9.42 23.404C9.476 23.488 9.56 23.516 9.644 23.516H14.46C14.628 23.516 14.74 23.32 14.656 23.18L10.484 16.236Z" fill="white"/>
<path d="M29.7673 8.732H25.6512C25.5112 8.732 25.3993 8.844 25.3993 8.956V9.404C25.3993 9.516 25.3153 9.572 25.2313 9.516C24.0553 8.844 22.7112 8.48 21.3392 8.48C16.9992 8.48 13.4993 11.98 13.4993 16.236C13.4993 20.492 16.9992 23.992 21.3392 23.992C22.7112 23.992 24.0273 23.628 25.2313 22.956C25.2873 22.928 25.3713 22.956 25.3993 23.04C25.5112 23.712 25.3993 24.3 25.0633 24.804C24.5313 25.532 23.5233 26.008 22.2913 26.092C20.3873 26.204 18.9033 24.972 18.2593 24.3C18.1753 24.216 18.0352 24.216 17.9512 24.272L14.8993 26.624C14.7872 26.736 14.7592 26.904 14.8713 26.988C18.0632 29.9 20.8352 30.04 21.9552 30.04C22.0392 30.04 22.0952 30.04 22.1512 30.04H22.2632C27.2752 30.04 30.0193 27.212 30.0193 22.116V8.956C30.0193 8.844 29.9072 8.732 29.7673 8.732ZM22.0392 19.792C22.0112 19.792 21.9832 19.792 21.9552 19.792H21.9272C19.9673 19.736 18.4552 18.168 18.4552 16.236C18.4552 14.276 20.0512 12.68 22.0392 12.68C23.5512 12.68 24.6713 13.604 25.1753 15.004C25.3433 15.396 25.3993 15.816 25.3993 16.236C25.3993 18.196 24.0273 19.792 22.0392 19.792Z" fill="white"/>
</g>
<defs>
<clipPath id="clip0_5_2">
<rect width="32" height="32" fill="white"/>
</clipPath>
</defs>
</svg>
