<svg width="32" height="32" viewBox="0 0 32 32" fill="none" xmlns="http://www.w3.org/2000/svg">
<g clip-path="url(#clip0_6_12)">
<rect width="32" height="32" rx="4" fill="#0EA5E9"/>
<path d="M11.267 16.3376C11.243 16.2667 11.243 16.1957 11.267 16.1247L14.8405 10.2581C14.9125 10.1398 14.8166 9.95054 14.6727 9.95054H10.5475C10.4755 9.95054 10.4036 9.99785 10.3556 10.0688L8.31703 13.8301C8.2211 13.9957 7.95728 13.9247 7.95728 13.7355V6.2129C7.95728 6.09462 7.86135 6 7.74143 6H4.19187C4.07195 6 4 6.09462 4 6.2129V22.2989C4 22.4172 4.07195 22.4882 4.19187 22.4882H7.74143C7.86135 22.4882 7.95728 22.4172 7.95728 22.2989V18.7269C7.95728 18.5376 8.2211 18.4667 8.31703 18.6323L10.3556 22.3935C10.4036 22.4645 10.4755 22.4882 10.5475 22.4882H14.6727C14.8166 22.4882 14.9125 22.3226 14.8405 22.2043L11.267 16.3376Z" fill="white"/>
<path d="M27.7841 9.99785H24.2586C24.1387 9.99785 24.0427 10.0925 24.0427 10.1871V10.5656C24.0427 10.6602 23.9708 10.7075 23.8988 10.6602C22.8915 10.0925 21.7403 9.78495 20.5651 9.78495C16.8477 9.78495 13.8497 12.7419 13.8497 16.3376C13.8497 19.9333 16.8477 22.8903 20.5651 22.8903C21.7403 22.8903 22.8675 22.5828 23.8988 22.0151C23.9468 21.9914 24.0187 22.0151 24.0427 22.086C24.1387 22.6538 24.0427 23.1505 23.7549 23.5763C23.2992 24.1914 22.4358 24.5935 21.3806 24.6645C19.7497 24.7591 18.4785 23.7183 17.9269 23.1505C17.855 23.0796 17.7351 23.0796 17.6631 23.1269L15.0489 25.114C14.953 25.2086 14.929 25.3505 15.0249 25.4215C17.759 27.8817 20.1334 28 21.0927 28C21.1647 28 21.2127 28 21.2606 28H21.3566C25.6496 28 28 25.6108 28 21.3054V10.1871C28 10.0925 27.9041 9.99785 27.7841 9.99785ZM21.1647 19.3419C21.1407 19.3419 21.1167 19.3419 21.0927 19.3419H21.0688C19.3899 19.2946 18.0948 17.9699 18.0948 16.3376C18.0948 14.6817 19.4619 13.3333 21.1647 13.3333C22.4598 13.3333 23.4191 14.114 23.8509 15.2968C23.9948 15.628 24.0427 15.9828 24.0427 16.3376C24.0427 17.9935 22.8675 19.3419 21.1647 19.3419Z" fill="white"/>
</g>
<defs>
<clipPath id="clip0_6_12">
<rect width="32" height="32" fill="white"/>
</clipPath>
</defs>
</svg>
