<svg width="32" height="32" viewBox="0 0 32 32" fill="none" xmlns="http://www.w3.org/2000/svg">
<g clip-path="url(#clip0_6_20)">
<rect width="32" height="32" rx="16" fill="#0EA5E9"/>
<path d="M7.12 12.0578V4.252C7.12 3.83586 6.78414 3.5 6.368 3.5H2.224C2.00904 3.5 1.81267 3.59115 1.67781 3.75053C1.54999 3.90159 1.5 4.08543 1.5 4.252V23.292C1.5 23.4623 1.55304 23.6571 1.70595 23.8101C1.85885 23.963 2.05374 24.016 2.224 24.016H6.368C6.53457 24.016 6.71841 23.966 6.86947 23.8382C7.02885 23.7033 7.12 23.507 7.12 23.292V20.1622L8.97905 23.6397L8.9905 23.6611L9.00398 23.6814C9.17821 23.9427 9.44473 24.016 9.644 24.016H14.46C14.7498 24.016 14.972 23.8466 15.0852 23.651C15.1979 23.4565 15.2365 23.1757 15.0847 22.9228L15.0846 22.9225L10.9916 16.11L15.0846 9.2975L15.0847 9.29725C15.2392 9.03987 15.1919 8.75772 15.0954 8.5735C14.9978 8.38711 14.7821 8.176 14.46 8.176H9.644C9.33992 8.176 9.11892 8.36624 9.00398 8.53865L8.9905 8.55885L8.97905 8.58027L7.12 12.0578ZM25.6512 8.232C25.3251 8.232 25.0015 8.45486 24.9192 8.78936C23.8098 8.26222 22.5857 7.98 21.3392 7.98C16.7266 7.98 12.9993 11.7004 12.9993 16.236C12.9993 19.5652 15.0075 22.4552 17.9 23.757C17.8176 23.7778 17.7405 23.8116 17.6739 23.856L17.6596 23.8655L17.646 23.876L14.594 26.228L14.5685 26.2476L14.5457 26.2704C14.421 26.3951 14.3247 26.5676 14.304 26.7642C14.2828 26.9654 14.3452 27.2036 14.547 27.369C17.8535 30.3791 20.7555 30.54 21.9552 30.54H21.9557H21.9562H21.9567H21.9572H21.9577H21.9582H21.9587H21.9592H21.9597H21.9601H21.9606H21.9611H21.9616H21.9621H21.9626H21.963H21.9635H21.964H21.9645H21.965H21.9654H21.9659H21.9664H21.9669H21.9674H21.9678H21.9683H21.9688H21.9693H21.9697H21.9702H21.9707H21.9712H21.9716H21.9721H21.9726H21.973H21.9735H21.974H21.9744H21.9749H21.9754H21.9758H21.9763H21.9768H21.9772H21.9777H21.9782H21.9786H21.9791H21.9795H21.98H21.9805H21.9809H21.9814H21.9818H21.9823H21.9828H21.9832H21.9837H21.9841H21.9846H21.985H21.9855H21.9859H21.9864H21.9869H21.9873H21.9878H21.9882H21.9887H21.9891H21.9896H21.99H21.9904H21.9909H21.9913H21.9918H21.9922H21.9927H21.9931H21.9936H21.994H21.9945H21.9949H21.9953H21.9958H21.9962H21.9967H21.9971H21.9975H21.998H21.9984H21.9989H21.9993H21.9997H22.0002H22.0006H22.001H22.0015H22.0019H22.0023H22.0028H22.0032H22.0036H22.0041H22.0045H22.0049H22.0054H22.0058H22.0062H22.0066H22.0071H22.0075H22.0079H22.0084H22.0088H22.0092H22.0096H22.0101H22.0105H22.0109H22.0113H22.0118H22.0122H22.0126H22.013H22.0134H22.0139H22.0143H22.0147H22.0151H22.0155H22.016H22.0164H22.0168H22.0172H22.0176H22.018H22.0184H22.0189H22.0193H22.0197H22.0201H22.0205H22.0209H22.0213H22.0218H22.0222H22.0226H22.023H22.0234H22.0238H22.0242H22.0246H22.025H22.0254H22.0258H22.0262H22.0267H22.0271H22.0275H22.0279H22.0283H22.0287H22.0291H22.0295H22.0299H22.0303H22.0307H22.0311H22.0315H22.0319H22.0323H22.0327H22.0331H22.0335H22.0339H22.0343H22.0347H22.0351H22.0355H22.0359H22.0363H22.0367H22.0371H22.0374H22.0378H22.0382H22.0386H22.039H22.0394H22.0398H22.0402H22.0406H22.041H22.0414H22.0418H22.0421H22.0425H22.0429H22.0433H22.0437H22.0441H22.0445H22.0449H22.0453H22.0456H22.046H22.0464H22.0468H22.0472H22.0476H22.0479H22.0483H22.0487H22.0491H22.0495H22.0499H22.0502H22.0506H22.051H22.0514H22.0518H22.0521H22.0525H22.0529H22.0533H22.0537H22.054H22.0544H22.0548H22.0552H22.0555H22.0559H22.0563H22.0567H22.0571H22.0574H22.0578H22.0582H22.0585H22.0589H22.0593H22.0597H22.06H22.0604H22.0608H22.0612H22.0615H22.0619H22.0623H22.0626H22.063H22.0634H22.0637H22.0641H22.0645H22.0649H22.0652H22.0656H22.066H22.0663H22.0667H22.0671H22.0674H22.0678H22.0682H22.0685H22.0689H22.0693H22.0696H22.07H22.0703H22.0707H22.0711H22.0714H22.0718H22.0722H22.0725H22.0729H22.0732H22.0736H22.074H22.0743H22.0747H22.075H22.0754H22.0758H22.0761H22.0765H22.0768H22.0772H22.0776H22.0779H22.0783H22.0786H22.079H22.0793H22.0797H22.0801H22.0804H22.0808H22.0811H22.0815H22.0818H22.0822H22.0825H22.0829H22.0832H22.0836H22.084H22.0843H22.0847H22.085H22.0854H22.0857H22.0861H22.0864H22.0868H22.0871H22.0875H22.0878H22.0882H22.0885H22.0889H22.0892H22.0896H22.0899H22.0903H22.0906H22.091H22.0913H22.0917H22.092H22.0924H22.0927H22.0931H22.0934H22.0938H22.0941H22.0944H22.0948H22.0951H22.0955H22.0958H22.0962H22.0965H22.0969H22.0972H22.0976H22.0979H22.0982H22.0986H22.0989H22.0993H22.0996H22.1H22.1003H22.1006H22.101H22.1013H22.1017H22.102H22.1024H22.1027H22.103H22.1034H22.1037H22.1041H22.1044H22.1047H22.1051H22.1054H22.1058H22.1061H22.1064H22.1068H22.1071H22.1075H22.1078H22.1081H22.1085H22.1088H22.1091H22.1095H22.1098H22.1102H22.1105H22.1108H22.1112H22.1115H22.1119H22.1122H22.1125H22.1129H22.1132H22.1135H22.1139H22.1142H22.1145H22.1149H22.1152H22.1155H22.1159H22.1162H22.1166H22.1169H22.1172H22.1176H22.1179H22.1182H22.1186H22.1189H22.1192H22.1196H22.1199H22.1202H22.1206H22.1209H22.1212H22.1216H22.1219H22.1222H22.1226H22.1229H22.1232H22.1236H22.1239H22.1242H22.1246H22.1249H22.1252H22.1256H22.1259H22.1262H22.1266H22.1269H22.1272H22.1275H22.1279H22.1282H22.1285H22.1289H22.1292H22.1295H22.1299H22.1302H22.1305H22.1309H22.1312H22.1315H22.1318H22.1322H22.1325H22.1328H22.1332H22.1335H22.1338H22.1342H22.1345H22.1348H22.1351H22.1355H22.1358H22.1361H22.1365H22.1368H22.1371H22.1375H22.1378H22.1381H22.1384H22.1388H22.1391H22.1394H22.1398H22.1401H22.1404H22.1407H22.1411H22.1414H22.1417H22.1421H22.1424H22.1427H22.143H22.1434H22.1437H22.144H22.1444H22.1447H22.145H22.1453H22.1457H22.146H22.1463H22.1467H22.147H22.1473H22.1476H22.148H22.1483H22.1486H22.149H22.1493H22.1496H22.1499H22.1503H22.1506H22.1509H22.1512H22.2632C24.8619 30.54 26.9461 29.8051 28.3785 28.3383C29.809 26.8735 30.5193 24.7503 30.5193 22.116V8.956C30.5193 8.53092 30.1449 8.232 29.7673 8.232H25.6512ZM21.3392 24.492C22.5986 24.492 23.811 24.204 24.9365 23.6703C24.9144 23.9891 24.8173 24.2684 24.6531 24.5178C24.2333 25.0848 23.3902 25.5154 22.2596 25.593C20.6925 25.6842 19.413 24.7341 18.7498 24.0849C19.5646 24.349 20.4349 24.492 21.3392 24.492ZM24.7048 15.1734L24.7098 15.1873L24.7157 15.201C24.8485 15.5109 24.8993 15.8582 24.8993 16.236C24.8993 17.9607 23.7119 19.292 22.0392 19.292H22.0391H22.0389H22.0388H22.0386H22.0384H22.0383H22.0381H22.0379H22.0378H22.0376H22.0374H22.0373H22.0371H22.037H22.0368H22.0366H22.0365H22.0363H22.0361H22.036H22.0358H22.0356H22.0355H22.0353H22.0351H22.035H22.0348H22.0347H22.0345H22.0343H22.0342H22.034H22.0338H22.0337H22.0335H22.0333H22.0332H22.033H22.0329H22.0327H22.0325H22.0324H22.0322H22.032H22.0319H22.0317H22.0315H22.0314H22.0312H22.031H22.0309H22.0307H22.0306H22.0304H22.0302H22.0301H22.0299H22.0297H22.0296H22.0294H22.0292H22.0291H22.0289H22.0287H22.0286H22.0284H22.0283H22.0281H22.0279H22.0278H22.0276H22.0274H22.0273H22.0271H22.0269H22.0268H22.0266H22.0265H22.0263H22.0261H22.026H22.0258H22.0256H22.0255H22.0253H22.0251H22.025H22.0248H22.0246H22.0245H22.0243H22.0242H22.024H22.0238H22.0237H22.0235H22.0233H22.0232H22.023H22.0228H22.0227H22.0225H22.0224H22.0222H22.022H22.0219H22.0217H22.0215H22.0214H22.0212H22.021H22.0209H22.0207H22.0205H22.0204H22.0202H22.0201H22.0199H22.0197H22.0196H22.0194H22.0192H22.0191H22.0189H22.0187H22.0186H22.0184H22.0182H22.0181H22.0179H22.0178H22.0176H22.0174H22.0173H22.0171H22.0169H22.0168H22.0166H22.0164H22.0163H22.0161H22.016H22.0158H22.0156H22.0155H22.0153H22.0151H22.015H22.0148H22.0146H22.0145H22.0143H22.0141H22.014H22.0138H22.0137H22.0135H22.0133H22.0132H22.013H22.0128H22.0127H22.0125H22.0123H22.0122H22.012H22.0119H22.0117H22.0115H22.0114H22.0112H22.011H22.0109H22.0107H22.0105H22.0104H22.0102H22.01H22.0099H22.0097H22.0096H22.0094H22.0092H22.0091H22.0089H22.0087H22.0086H22.0084H22.0082H22.0081H22.0079H22.0077H22.0076H22.0074H22.0073H22.0071H22.0069H22.0068H22.0066H22.0064H22.0063H22.0061H22.0059H22.0058H22.0056H22.0055H22.0053H22.0051H22.005H22.0048H22.0046H22.0045H22.0043H22.0041H22.004H22.0038H22.0036H22.0035H22.0033H22.0032H22.003H22.0028H22.0027H22.0025H22.0023H22.0022H22.002H22.0018H22.0017H22.0015H22.0014H22.0012H22.001H22.0009H22.0007H22.0005H22.0004H22.0002H22H21.9999H21.9997H21.9995H21.9994H21.9992H21.9991H21.9989H21.9987H21.9986H21.9984H21.9982H21.9981H21.9979H21.9977H21.9976H21.9974H21.9972H21.9971H21.9969H21.9968H21.9966H21.9964H21.9963H21.9961H21.9959H21.9958H21.9956H21.9954H21.9953H21.9951H21.995H21.9948H21.9946H21.9945H21.9943H21.9941H21.994H21.9938H21.9936H21.9935H21.9933H21.9931H21.993H21.9928H21.9927H21.9925H21.9923H21.9922H21.992H21.9918H21.9917H21.9915H21.9913H21.9912H21.991H21.9909H21.9907H21.9905H21.9904H21.9902H21.99H21.9899H21.9897H21.9895H21.9894H21.9892H21.989H21.9889H21.9887H21.9886H21.9884H21.9882H21.9881H21.9879H21.9877H21.9876H21.9874H21.9872H21.9871H21.9869H21.9867H21.9866H21.9864H21.9863H21.9861H21.9859H21.9858H21.9856H21.9854H21.9853H21.9851H21.9849H21.9848H21.9846H21.9845H21.9843H21.9841H21.984H21.9838H21.9836H21.9835H21.9833H21.9831H21.983H21.9828H21.9826H21.9825H21.9823H21.9822H21.982H21.9818H21.9817H21.9815H21.9813H21.9812H21.981H21.9808H21.9807H21.9805H21.9804H21.9802H21.98H21.9799H21.9797H21.9795H21.9794H21.9792H21.979H21.9789H21.9787H21.9785H21.9784H21.9782H21.9781H21.9779H21.9777H21.9776H21.9774H21.9772H21.9771H21.9769H21.9767H21.9766H21.9764H21.9762H21.9761H21.9759H21.9758H21.9756H21.9754H21.9753H21.9751H21.9749H21.9748H21.9746H21.9744H21.9743H21.9741H21.974H21.9738H21.9736H21.9735H21.9733H21.9731H21.973H21.9728H21.9726H21.9725H21.9723H21.9721H21.972H21.9718H21.9717H21.9715H21.9713H21.9712H21.971H21.9708H21.9707H21.9705H21.9703H21.9702H21.97H21.9699H21.9697H21.9695H21.9694H21.9692H21.969H21.9689H21.9687H21.9685H21.9684H21.9682H21.968H21.9679H21.9677H21.9676H21.9674H21.9672H21.9671H21.9669H21.9667H21.9666H21.9664H21.9662H21.9661H21.9659H21.9657H21.9656H21.9654H21.9653H21.9651H21.9649H21.9648H21.9646H21.9644H21.9643H21.9641H21.9639H21.9638H21.9636H21.9635H21.9633H21.9631H21.963H21.9628H21.9626H21.9625H21.9623H21.9621H21.962H21.9618H21.9616H21.9615H21.9613H21.9612H21.961H21.9608H21.9607H21.9605H21.9603H21.9602H21.96H21.9598H21.9597H21.9595H21.9594H21.9592H21.959H21.9589H21.9587H21.9585H21.9584H21.9582H21.958H21.9579H21.9577H21.9575H21.9574H21.9572H21.9571H21.9569H21.9567H21.9566H21.9564H21.9562H21.9561H21.9559H21.9557H21.9556H21.9554H21.9552H21.9346C20.2481 19.2403 18.9552 17.8948 18.9552 16.236C18.9552 14.5547 20.3248 13.18 22.0392 13.18C23.3093 13.18 24.2611 13.9408 24.7048 15.1734Z" fill="white" stroke="#0EA5E9"/>
</g>
<defs>
<clipPath id="clip0_6_20">
<rect width="32" height="32" fill="white"/>
</clipPath>
</defs>
</svg>
