<svg width="132" height="25" viewBox="0 0 132 25" fill="none" xmlns="http://www.w3.org/2000/svg">
<g clip-path="url(#clip0_10_2)">
<path d="M15.96 19.74L9.324 10.136C9.268 10.052 9.268 9.94 9.324 9.856L15.288 0.867999C15.4 0.699999 15.288 0.504 15.092 0.504H10.444C10.36 0.504 10.276 0.532 10.22 0.616L5.432 8.12C5.292 8.316 4.984 8.232 4.984 7.98V0.727999C4.984 0.616 4.872 0.504 4.732 0.504H0.224C0.0840001 0.504 0 0.616 0 0.727999V19.852C0 19.992 0.0840001 20.104 0.224 20.104H4.732C4.872 20.104 4.984 19.992 4.984 19.852V12.46C4.984 12.208 5.292 12.124 5.432 12.348L10.052 19.992C10.08 20.048 10.164 20.104 10.248 20.104H15.764C15.96 20.104 16.072 19.88 15.96 19.74Z" fill="#0EA5E9"/>
<path d="M29.8791 10.556C29.7111 9.996 29.4871 9.464 29.1791 8.96L29.0391 8.708C29.0111 8.652 28.9551 8.596 28.9271 8.54L28.8431 8.4C28.8151 8.344 28.7591 8.288 28.7031 8.204C28.6471 8.12 28.5911 8.036 28.5351 7.98L28.4791 7.924C28.4231 7.84 28.3671 7.784 28.3111 7.728L28.2831 7.672L28.1991 7.756L28.2551 7.672C28.1711 7.56 28.0871 7.476 28.0031 7.364L27.9471 7.308C27.8911 7.252 27.8351 7.196 27.7511 7.14V7.112C27.6671 7.056 27.5831 6.972 27.4991 6.888L27.4431 6.86C27.3311 6.748 27.2191 6.664 27.1071 6.58C27.0791 6.58 27.0511 6.552 27.0231 6.524C26.8831 6.412 26.7711 6.328 26.6311 6.244H26.6031C26.4631 6.16 26.2671 6.02 26.1271 5.964C26.0991 5.936 26.0431 5.908 26.0151 5.88H25.9871C25.9311 5.852 25.8751 5.824 25.7911 5.768H25.7631C25.6231 5.712 25.4831 5.628 25.3711 5.572H25.3151C25.2311 5.544 25.1751 5.516 25.0631 5.488C25.0351 5.46 25.0071 5.46 24.9791 5.432C24.8951 5.404 24.7831 5.376 24.6991 5.348H24.6711C24.5591 5.32 24.4471 5.264 24.3351 5.236L24.2511 5.208C24.0271 5.152 23.8031 5.124 23.5791 5.096L23.4671 5.068C23.2431 5.04 22.9911 5.012 22.7671 4.984H22.6831C22.5431 4.984 22.4311 4.984 22.3191 4.984C22.2071 4.984 22.0951 4.984 21.9551 4.984C21.9271 4.984 21.8991 4.984 21.8711 5.012H21.8431C21.7591 5.012 21.6751 5.012 21.5911 5.012H21.5631C21.5351 5.012 21.5071 5.04 21.4791 5.04C21.3391 5.04 21.2271 5.068 21.1151 5.068H21.0871C21.0031 5.096 20.8351 5.124 20.7231 5.152H20.6671C20.5831 5.18 20.4991 5.18 20.4151 5.208H20.3871C20.3591 5.236 20.3311 5.236 20.3031 5.236C20.1911 5.264 20.0791 5.292 19.9671 5.32C19.8551 5.376 19.7431 5.404 19.6311 5.432C19.6311 5.46 19.6031 5.46 19.5751 5.46L19.5471 5.488C19.4631 5.516 19.3791 5.544 19.3231 5.572H19.2951C19.2671 5.6 19.2391 5.6 19.2111 5.6C19.0991 5.656 19.0151 5.712 18.9031 5.74C18.7911 5.796 18.7071 5.852 18.5951 5.908C18.5671 5.908 18.5391 5.936 18.5111 5.936V5.964C18.4271 5.992 18.3711 6.048 18.2871 6.076L18.2031 6.132C18.0911 6.188 18.0071 6.244 17.9231 6.3C16.9711 6.944 16.1591 7.784 15.5711 8.736C15.5151 8.82 15.4591 8.932 15.4031 9.016L15.3471 9.156C15.3191 9.156 15.3191 9.184 15.2911 9.212C15.2911 9.24 15.2631 9.268 15.2631 9.296L15.2351 9.352C15.2351 9.38 15.2071 9.408 15.2071 9.408C15.1511 9.52 15.0951 9.632 15.0671 9.744C14.9831 9.912 14.8991 10.108 14.8431 10.332C14.6191 10.976 14.4791 11.676 14.4511 12.348C14.4511 12.488 14.4511 12.628 14.4511 12.768C14.4511 12.88 14.4511 13.02 14.4511 13.16C14.4791 13.552 14.5071 13.944 14.5911 14.308C14.6191 14.448 14.6471 14.588 14.6751 14.7C14.7311 14.84 14.7591 15.008 14.8431 15.176C14.9551 15.512 15.0671 15.848 15.2351 16.156C15.2351 16.184 15.2631 16.184 15.2631 16.212L15.2911 16.268C15.3191 16.352 15.3751 16.436 15.4031 16.492L15.4311 16.548C15.4871 16.632 15.5151 16.716 15.5711 16.772C16.1591 17.752 16.9711 18.564 17.9231 19.208C18.0071 19.264 18.0911 19.32 18.2031 19.376L18.2871 19.432C18.3711 19.488 18.4271 19.516 18.5111 19.544V19.572C18.5391 19.572 18.5671 19.6 18.5951 19.6C18.7071 19.656 18.7911 19.712 18.9031 19.768C19.0151 19.796 19.0991 19.852 19.2111 19.908C19.2391 19.908 19.2671 19.908 19.2951 19.936H19.3231C19.3791 19.964 19.4631 19.992 19.5471 20.02L19.5751 20.048C19.6031 20.048 19.6311 20.048 19.6311 20.076C19.7431 20.104 19.8551 20.132 19.9671 20.188C20.0791 20.216 20.1911 20.244 20.3031 20.272C20.3311 20.272 20.3591 20.272 20.3871 20.3H20.4151C20.4991 20.328 20.5831 20.328 20.6671 20.356L20.7791 20.384C20.8631 20.384 20.9471 20.412 21.0591 20.44H21.1151C21.2271 20.468 21.3391 20.468 21.4791 20.468C21.5071 20.496 21.5351 20.496 21.5631 20.496H21.5911C21.6751 20.496 21.7591 20.496 21.8431 20.524H21.8711C21.8991 20.524 21.9271 20.524 21.9551 20.524C22.0951 20.524 22.2071 20.524 22.3191 20.524C22.4311 20.524 22.5431 20.524 22.6831 20.524H22.7671C22.9911 20.496 23.2431 20.468 23.4671 20.44H23.5511C23.8031 20.384 24.0271 20.356 24.2511 20.3L24.3351 20.272C24.4471 20.244 24.5591 20.216 24.6711 20.16H24.6991C24.7831 20.132 24.8951 20.104 24.9791 20.076L25.0911 20.02C25.1751 19.992 25.2311 19.964 25.3431 19.936H25.3711C25.4831 19.88 25.6231 19.824 25.7631 19.74H25.7911C25.8751 19.684 25.9311 19.656 25.9871 19.628H26.0151C26.0431 19.6 26.0991 19.572 26.1271 19.572L26.1551 19.544C26.3231 19.46 26.4631 19.376 26.6031 19.264L26.6591 19.236C26.7711 19.152 26.9111 19.068 27.0231 18.984L27.1071 18.928C27.2191 18.844 27.3311 18.76 27.4431 18.676L27.3591 18.564L27.4431 18.648L27.5271 18.592C27.6111 18.536 27.6671 18.452 27.7511 18.396V18.368C27.8351 18.312 27.8911 18.256 27.9471 18.2L28.0031 18.144C28.0871 18.032 28.1711 17.948 28.2831 17.836L28.3111 17.78C28.3671 17.724 28.4231 17.668 28.4791 17.584L28.5351 17.528C28.5631 17.5 28.5911 17.472 28.6191 17.444L28.6751 17.36C28.7591 17.248 28.8431 17.136 28.9271 16.996C29.0111 16.884 29.0671 16.772 29.1231 16.66L29.1791 16.548C29.2631 16.436 29.3751 16.212 29.4591 16.016C29.5151 15.876 29.4311 15.708 29.2911 15.68L25.3151 14.98C25.2031 14.952 25.1191 15.008 25.0631 15.064C24.3631 15.988 23.3551 16.464 22.2911 16.464C21.0311 16.464 19.8831 15.764 19.2391 14.7C19.1551 14.532 19.2671 14.336 19.4351 14.336H29.8231C29.9631 14.336 30.0471 14.252 30.0751 14.14C30.1591 13.692 30.1871 13.188 30.1871 12.768C30.1871 12.012 30.1031 11.284 29.8791 10.556ZM25.3151 11.06H19.6591C19.5191 11.06 19.4071 10.92 19.4351 10.78C19.6311 9.688 21.0311 8.848 22.4871 8.848C24.1111 8.848 25.3711 9.688 25.5671 10.78C25.5671 10.92 25.4551 11.06 25.3151 11.06Z" fill="#0EA5E9"/>
<path d="M42.7392 6.524C42.6272 6.44 42.5152 6.328 42.4032 6.244C42.3752 6.216 39.1272 3.64 35.7672 5.964C35.6832 6.02 35.5992 5.964 35.5992 5.852V5.46C35.5992 5.32 35.4872 5.208 35.3472 5.208H31.2032C31.0632 5.208 30.9792 5.32 30.9792 5.46V19.824C30.9792 19.964 31.0632 20.048 31.2032 20.048H35.6272C35.7672 20.048 35.8792 19.964 35.8792 19.824V11.704C35.8792 11.144 35.8792 10.444 36.1032 9.94C36.3272 9.464 36.9712 9.156 37.8392 9.156C38.2872 9.156 38.6512 9.268 38.9312 9.492C39.0992 9.632 39.2392 9.8 39.3512 10.024C39.5752 10.528 39.6032 11.144 39.6032 11.704V19.824C39.6032 19.964 39.7152 20.048 39.8552 20.048H44.2792C44.3912 20.048 44.5032 19.964 44.5032 19.824V11.48C44.5032 9.296 44.2512 8.064 42.7392 6.524Z" fill="#0EA5E9"/>
<path d="M57.4227 6.524C57.3107 6.44 57.1988 6.328 57.0868 6.244C57.0587 6.216 53.8107 3.64 50.4507 5.964C50.3667 6.02 50.2827 5.964 50.2827 5.852V5.46C50.2827 5.32 50.1708 5.208 50.0308 5.208H45.8867C45.7467 5.208 45.6628 5.32 45.6628 5.46V19.824C45.6628 19.964 45.7467 20.048 45.8867 20.048H50.3107C50.4507 20.048 50.5627 19.964 50.5627 19.824V11.704C50.5627 11.144 50.5628 10.444 50.7868 9.94C51.0108 9.464 51.6548 9.156 52.5228 9.156C52.9708 9.156 53.3348 9.268 53.6147 9.492C53.7828 9.632 53.9227 9.8 54.0347 10.024C54.2587 10.528 54.2868 11.144 54.2868 11.704V19.824C54.2868 19.964 54.3987 20.048 54.5387 20.048H58.9627C59.0747 20.048 59.1867 19.964 59.1867 19.824V11.48C59.1867 9.296 58.9347 8.064 57.4227 6.524Z" fill="#0EA5E9"/>
<path d="M73.5794 5.208H69.2114C69.0994 5.208 69.0154 5.292 68.9874 5.376L66.4954 12.684C66.4114 12.88 66.1314 12.908 66.0474 12.684L63.3314 5.376C63.3034 5.292 63.2194 5.208 63.1354 5.208H58.9914C58.8234 5.208 58.7114 5.376 58.7674 5.544L63.6954 19.04C63.7234 19.096 63.7234 19.152 63.6954 19.18L61.9034 24.528C61.8474 24.696 61.9594 24.864 62.1274 24.864H66.7474C66.8314 24.864 66.9154 24.78 66.9714 24.696L69.1274 18.508L73.8034 5.544C73.8594 5.376 73.7474 5.208 73.5794 5.208Z" fill="#0EA5E9"/>
<path d="M97.6898 9.296C97.6618 9.156 97.5498 9.072 97.4378 9.072H87.1898C87.0498 9.072 86.9378 9.184 86.9378 9.296L86.9098 13.076C86.9098 13.216 87.0218 13.328 87.1618 13.328H91.8658C92.0618 13.328 92.1738 13.524 92.0618 13.692C91.0258 15.12 89.4018 15.932 87.6658 15.932C84.6418 15.932 82.1498 13.412 82.1498 10.304C82.1498 7.196 84.6418 4.676 87.6658 4.676C89.2618 4.676 90.7738 5.376 91.8098 6.58C91.8938 6.692 92.0618 6.692 92.1458 6.636L95.3938 4.228C95.5338 4.088 95.5618 3.892 95.4498 3.724C94.5818 2.66 93.4898 1.764 92.2858 1.148C90.8578 0.364 89.2898 0 87.6658 0C82.1218 0 77.6138 4.62 77.6138 10.304C77.6138 15.988 82.1218 20.608 87.6658 20.608C89.2898 20.608 90.8578 20.216 92.2858 19.46C93.6578 18.732 94.8898 17.668 95.7858 16.408C96.4858 15.456 96.9898 14.42 97.3258 13.3C97.6058 12.32 97.7458 11.312 97.7458 10.304C97.7458 9.996 97.7178 9.548 97.6898 9.296Z" fill="#0EA5E9"/>
<path d="M105.69 4.984C101.35 4.984 97.8222 8.484 97.8222 12.768C97.8222 17.052 101.35 20.524 105.69 20.524C110.03 20.524 113.558 17.052 113.558 12.768C113.558 8.484 110.03 4.984 105.69 4.984ZM105.69 16.156C103.786 16.156 102.246 14.616 102.246 12.768C102.246 10.892 103.786 9.38 105.69 9.38C107.594 9.38 109.134 10.892 109.134 12.768C109.134 14.616 107.594 16.156 105.69 16.156Z" fill="#0EA5E9"/>
<path d="M121.686 4.284H122.162C122.302 4.284 122.386 4.2 122.414 4.06L122.75 0.812C122.75 0.672 122.638 0.532 122.498 0.532H120.146C120.146 0.532 119.95 0.532 119.614 0.532C118.466 0.616 115.75 1.092 115.75 4.396V6.16C115.75 6.272 115.666 6.384 115.526 6.384H113.986C113.846 6.384 113.762 6.496 113.762 6.636V10.136C113.762 10.248 113.846 10.36 113.986 10.36H115.526C115.666 10.36 115.75 10.472 115.75 10.584V19.824C115.75 19.964 115.862 20.048 116.002 20.048H120.146C120.258 20.048 120.37 19.964 120.37 19.824L120.398 10.584C120.398 10.472 120.482 10.36 120.622 10.36H122.162C122.302 10.36 122.386 10.248 122.386 10.136V6.636C122.386 6.496 122.302 6.384 122.162 6.384H120.622C120.482 6.384 120.37 6.272 120.37 6.16C120.37 5.656 120.398 4.984 120.762 4.62C120.958 4.396 121.294 4.284 121.686 4.284Z" fill="#0EA5E9"/>
<path d="M130.491 4.284H130.967C131.107 4.284 131.191 4.2 131.219 4.06L131.555 0.812C131.555 0.672 131.443 0.532 131.303 0.532H128.951C128.951 0.532 128.755 0.532 128.419 0.532C127.271 0.616 124.555 1.092 124.555 4.396V6.16C124.555 6.272 124.471 6.384 124.331 6.384H122.791C122.651 6.384 122.567 6.496 122.567 6.636V10.136C122.567 10.248 122.651 10.36 122.791 10.36H124.331C124.471 10.36 124.555 10.472 124.555 10.584V19.824C124.555 19.964 124.667 20.048 124.807 20.048H128.951C129.063 20.048 129.175 19.964 129.175 19.824L129.203 10.584C129.203 10.472 129.287 10.36 129.427 10.36H130.967C131.107 10.36 131.191 10.248 131.191 10.136V6.636C131.191 6.496 131.107 6.384 130.967 6.384H129.427C129.287 6.384 129.175 6.272 129.175 6.16C129.175 5.656 129.203 4.984 129.567 4.62C129.763 4.396 130.099 4.284 130.491 4.284Z" fill="#0EA5E9"/>
</g>
<defs>
<clipPath id="clip0_10_2">
<rect width="132" height="25" fill="white"/>
</clipPath>
</defs>
</svg>
